<?xml version="1.0" encoding="utf-8"?>
<!-- Generator: Adobe Illustrator 24.3.0, SVG Export Plug-In . SVG Version: 6.00 Build 0)  -->
<svg version="1.1" id="Component_Hierarchy" xmlns="http://www.w3.org/2000/svg" xmlns:xlink="http://www.w3.org/1999/xlink"
	 x="0px" y="0px" viewBox="0 0 782 411" style="enable-background:new 0 0 782 411;" xml:space="preserve">
<style type="text/css">
	.st0{fill:#FFFFFF;}
	.st1{fill:none;stroke:#000000;stroke-miterlimit:10;}
</style>
<g>
	<rect x="-0.5" y="0.5" class="st0" width="782" height="410"/>
</g>
<line class="st1" x1="199.5" y1="343" x2="199.5" y2="299"/>
<line class="st1" x1="70.5" y1="343" x2="70.5" y2="299"/>
<line class="st1" x1="505.5" y1="162" x2="505.5" y2="206"/>
<line class="st1" x1="683.5" y1="162" x2="683.5" y2="206"/>
<g>
	<rect x="447.97" y="200" class="st0" width="118" height="61"/>
	<path d="M565.47,200.5v60h-117v-60H565.47 M566.47,199.5h-119v62h119V199.5L566.47,199.5z"/>
</g>
<g>
	<rect x="621.97" y="200" class="st0" width="118" height="61"/>
	<path d="M739.47,200.5v60h-117v-60H739.47 M740.47,199.5h-119v62h119V199.5L740.47,199.5z"/>
</g>
<line class="st1" x1="330.54" y1="96.5" x2="330.54" y2="339.5"/>
<line class="st1" x1="686.5" y1="163" x2="135.5" y2="163"/>
<g>
	<rect x="288.54" y="53.5" class="st0" width="84" height="72"/>
	<path d="M372.04,54v71h-83V54H372.04 M373.04,53h-85v73h85V53L373.04,53z"/>
</g>
<line class="st1" x1="134.5" y1="162" x2="134.5" y2="206"/>
<line class="st1" x1="199.44" y1="299" x2="70.5" y2="299"/>
<line class="st1" x1="134.97" y1="300" x2="134.97" y2="256"/>
<g>
	<rect x="75.97" y="200" class="st0" width="118" height="61"/>
	<path d="M193.47,200.5v60h-117v-60H193.47 M194.47,199.5h-119v62h119V199.5L194.47,199.5z"/>
</g>
<g>
	<rect x="271.54" y="200" class="st0" width="118" height="61"/>
	<path d="M389.04,200.5v60h-117v-60H389.04 M390.04,199.5h-119v62h119V199.5L390.04,199.5z"/>
</g>
<g>
	<rect x="156.77" y="321.5" class="st0" width="72" height="49"/>
	<path d="M228.27,322v48h-71v-48H228.27 M229.27,321h-73v50h73V321L229.27,321z"/>
</g>
<g>
	<rect x="40.77" y="321.5" class="st0" width="72" height="49"/>
	<path d="M112.27,322v48h-71v-48H112.27 M113.27,321h-73v50h73V321L113.27,321z"/>
</g>
<g>
	<rect x="271.54" y="315.5" class="st0" width="118" height="61"/>
	<path d="M389.04,316v60h-117v-60H389.04 M390.04,315h-119v62h119V315L390.04,315z"/>
</g>
<g>
	<path d="M316.78,77.15l-1.4,4.24h-1.8l4.58-13.48h2.1l4.6,13.48H323l-1.44-4.24H316.78z M321.2,75.79l-1.32-3.88
		c-0.3-0.88-0.5-1.68-0.7-2.46h-0.04c-0.2,0.8-0.42,1.62-0.68,2.44l-1.32,3.9H321.2z"/>
	<path d="M326.71,74.87c0-1.24-0.04-2.24-0.08-3.16h1.58l0.08,1.66h0.04c0.72-1.18,1.86-1.88,3.44-1.88c2.34,0,4.1,1.98,4.1,4.92
		c0,3.48-2.12,5.2-4.4,5.2c-1.28,0-2.4-0.56-2.98-1.52h-0.04v5.26h-1.74V74.87z M328.46,77.45c0,0.26,0.04,0.5,0.08,0.72
		c0.32,1.22,1.38,2.06,2.64,2.06c1.86,0,2.94-1.52,2.94-3.74c0-1.94-1.02-3.6-2.88-3.6c-1.2,0-2.32,0.86-2.66,2.18
		c-0.06,0.22-0.12,0.48-0.12,0.72V77.45z"/>
	<path d="M338.09,74.87c0-1.24-0.04-2.24-0.08-3.16h1.58l0.08,1.66h0.04c0.72-1.18,1.86-1.88,3.44-1.88c2.34,0,4.1,1.98,4.1,4.92
		c0,3.48-2.12,5.2-4.4,5.2c-1.28,0-2.4-0.56-2.98-1.52h-0.04v5.26h-1.74V74.87z M339.83,77.45c0,0.26,0.04,0.5,0.08,0.72
		c0.32,1.22,1.38,2.06,2.64,2.06c1.86,0,2.94-1.52,2.94-3.74c0-1.94-1.02-3.6-2.88-3.6c-1.2,0-2.32,0.86-2.66,2.18
		c-0.06,0.22-0.12,0.48-0.12,0.72V77.45z"/>
	<path d="M309.84,91.51c-1.46,1.96-2.52,4.56-2.52,8.18c0,3.56,1.1,6.12,2.52,8.12h-1.38c-1.26-1.66-2.62-4.22-2.62-8.12
		c0.02-3.94,1.36-6.5,2.62-8.18H309.84z"/>
	<path d="M311.46,103.59c0.52,0.34,1.44,0.7,2.32,0.7c1.28,0,1.88-0.64,1.88-1.44c0-0.84-0.5-1.3-1.8-1.78
		c-1.74-0.62-2.56-1.58-2.56-2.74c0-1.56,1.26-2.84,3.34-2.84c0.98,0,1.84,0.28,2.38,0.6l-0.44,1.28c-0.38-0.24-1.08-0.56-1.98-0.56
		c-1.04,0-1.62,0.6-1.62,1.32c0,0.8,0.58,1.16,1.84,1.64c1.68,0.64,2.54,1.48,2.54,2.92c0,1.7-1.32,2.9-3.62,2.9
		c-1.06,0-2.04-0.26-2.72-0.66L311.46,103.59z"/>
	<path d="M321.74,92.93v2.78h2.52v1.34h-2.52v5.22c0,1.2,0.34,1.88,1.32,1.88c0.46,0,0.8-0.06,1.02-0.12l0.08,1.32
		c-0.34,0.14-0.88,0.24-1.56,0.24c-0.82,0-1.48-0.26-1.9-0.74c-0.5-0.52-0.68-1.38-0.68-2.52v-5.28h-1.5v-1.34h1.5v-2.32
		L321.74,92.93z"/>
	<path d="M331.6,105.39l-0.14-1.22h-0.06c-0.54,0.76-1.58,1.44-2.96,1.44c-1.96,0-2.96-1.38-2.96-2.78c0-2.34,2.08-3.62,5.82-3.6
		v-0.2c0-0.8-0.22-2.24-2.2-2.24c-0.9,0-1.84,0.28-2.52,0.72l-0.4-1.16c0.8-0.52,1.96-0.86,3.18-0.86c2.96,0,3.68,2.02,3.68,3.96
		v3.62c0,0.84,0.04,1.66,0.16,2.32H331.6z M331.34,100.45c-1.92-0.04-4.1,0.3-4.1,2.18c0,1.14,0.76,1.68,1.66,1.68
		c1.26,0,2.06-0.8,2.34-1.62c0.06-0.18,0.1-0.38,0.1-0.56V100.45z"/>
	<path d="M337.92,92.93v2.78h2.52v1.34h-2.52v5.22c0,1.2,0.34,1.88,1.32,1.88c0.46,0,0.8-0.06,1.02-0.12l0.08,1.32
		c-0.34,0.14-0.88,0.24-1.56,0.24c-0.82,0-1.48-0.26-1.9-0.74c-0.5-0.52-0.68-1.38-0.68-2.52v-5.28h-1.5v-1.34h1.5v-2.32
		L337.92,92.93z"/>
	<path d="M343.27,100.87c0.04,2.38,1.56,3.36,3.32,3.36c1.26,0,2.02-0.22,2.68-0.5l0.3,1.26c-0.62,0.28-1.68,0.6-3.22,0.6
		c-2.98,0-4.76-1.96-4.76-4.88c0-2.92,1.72-5.22,4.54-5.22c3.16,0,4,2.78,4,4.56c0,0.36-0.04,0.64-0.06,0.82H343.27z M348.44,99.61
		c0.02-1.12-0.46-2.86-2.44-2.86c-1.78,0-2.56,1.64-2.7,2.86H348.44z"/>
	<path d="M351.25,107.81c1.42-1.98,2.52-4.58,2.52-8.18c0-3.58-1.08-6.14-2.52-8.12h1.36c1.28,1.64,2.62,4.2,2.62,8.14
		c0,3.92-1.34,6.46-2.62,8.16H351.25z"/>
</g>
<g>
	<path d="M284.63,212.09c0.88-0.18,2.14-0.28,3.34-0.28c1.86,0,3.06,0.34,3.9,1.1c0.68,0.6,1.06,1.52,1.06,2.56
		c0,1.78-1.12,2.96-2.54,3.44v0.06c1.04,0.36,1.66,1.32,1.98,2.72c0.44,1.88,0.76,3.18,1.04,3.7h-1.8c-0.22-0.38-0.52-1.54-0.9-3.22
		c-0.4-1.86-1.12-2.56-2.7-2.62h-1.64v5.84h-1.74V212.09z M286.37,218.23h1.78c1.86,0,3.04-1.02,3.04-2.56c0-1.74-1.26-2.5-3.1-2.52
		c-0.84,0-1.44,0.08-1.72,0.16V218.23z"/>
	<path d="M296.39,220.87c0.04,2.38,1.56,3.36,3.32,3.36c1.26,0,2.02-0.22,2.68-0.5l0.3,1.26c-0.62,0.28-1.68,0.6-3.22,0.6
		c-2.98,0-4.76-1.96-4.76-4.88c0-2.92,1.72-5.22,4.54-5.22c3.16,0,4,2.78,4,4.56c0,0.36-0.04,0.64-0.06,0.82H296.39z M301.55,219.61
		c0.02-1.12-0.46-2.86-2.44-2.86c-1.78,0-2.56,1.64-2.7,2.86H301.55z"/>
	<path d="M312.33,225.03c-0.46,0.24-1.48,0.56-2.78,0.56c-2.92,0-4.82-1.98-4.82-4.94c0-2.98,2.04-5.14,5.2-5.14
		c1.04,0,1.96,0.26,2.44,0.5l-0.4,1.36c-0.42-0.24-1.08-0.46-2.04-0.46c-2.22,0-3.42,1.64-3.42,3.66c0,2.24,1.44,3.62,3.36,3.62
		c1,0,1.66-0.26,2.16-0.48L312.33,225.03z"/>
	<path d="M323.03,220.47c0,3.58-2.48,5.14-4.82,5.14c-2.62,0-4.64-1.92-4.64-4.98c0-3.24,2.12-5.14,4.8-5.14
		C321.15,215.49,323.03,217.51,323.03,220.47z M315.35,220.57c0,2.12,1.22,3.72,2.94,3.72c1.68,0,2.94-1.58,2.94-3.76
		c0-1.64-0.82-3.72-2.9-3.72S315.35,218.73,315.35,220.57z"/>
	<path d="M325.25,218.73c0-1.14-0.02-2.12-0.08-3.02h1.54l0.06,1.9h0.08c0.44-1.3,1.5-2.12,2.68-2.12c0.2,0,0.34,0.02,0.5,0.06v1.66
		c-0.18-0.04-0.36-0.06-0.6-0.06c-1.24,0-2.12,0.94-2.36,2.26c-0.04,0.24-0.08,0.52-0.08,0.82v5.16h-1.74V218.73z"/>
	<path d="M339.95,211.19v11.7c0,0.86,0.02,1.84,0.08,2.5h-1.58l-0.08-1.68h-0.04c-0.54,1.08-1.72,1.9-3.3,1.9
		c-2.34,0-4.14-1.98-4.14-4.92c-0.02-3.22,1.98-5.2,4.34-5.2c1.48,0,2.48,0.7,2.92,1.48h0.04v-5.78H339.95z M338.19,219.65
		c0-0.22-0.02-0.52-0.08-0.74c-0.26-1.12-1.22-2.04-2.54-2.04c-1.82,0-2.9,1.6-2.9,3.74c0,1.96,0.96,3.58,2.86,3.58
		c1.18,0,2.26-0.78,2.58-2.1c0.06-0.24,0.08-0.48,0.08-0.76V219.65z"/>
	<path d="M342.62,223.59c0.52,0.34,1.44,0.7,2.32,0.7c1.28,0,1.88-0.64,1.88-1.44c0-0.84-0.5-1.3-1.8-1.78
		c-1.74-0.62-2.56-1.58-2.56-2.74c0-1.56,1.26-2.84,3.34-2.84c0.98,0,1.84,0.28,2.38,0.6l-0.44,1.28c-0.38-0.24-1.08-0.56-1.98-0.56
		c-1.04,0-1.62,0.6-1.62,1.32c0,0.8,0.58,1.16,1.84,1.64c1.68,0.64,2.54,1.48,2.54,2.92c0,1.7-1.32,2.9-3.62,2.9
		c-1.06,0-2.04-0.26-2.72-0.66L342.62,223.59z"/>
	<path d="M350.85,211.91h1.74v12.02h5.76v1.46h-7.5V211.91z"/>
	<path d="M362.19,212.99c0.02,0.6-0.42,1.08-1.12,1.08c-0.62,0-1.06-0.48-1.06-1.08c0-0.62,0.46-1.1,1.1-1.1
		C361.76,211.89,362.19,212.37,362.19,212.99z M360.22,225.39v-9.68h1.76v9.68H360.22z"/>
	<path d="M364.66,223.59c0.52,0.34,1.44,0.7,2.32,0.7c1.28,0,1.88-0.64,1.88-1.44c0-0.84-0.5-1.3-1.8-1.78
		c-1.74-0.62-2.56-1.58-2.56-2.74c0-1.56,1.26-2.84,3.34-2.84c0.98,0,1.84,0.28,2.38,0.6l-0.44,1.28c-0.38-0.24-1.08-0.56-1.98-0.56
		c-1.04,0-1.62,0.6-1.62,1.32c0,0.8,0.58,1.16,1.84,1.64c1.68,0.64,2.54,1.48,2.54,2.92c0,1.7-1.32,2.9-3.62,2.9
		c-1.06,0-2.04-0.26-2.72-0.66L364.66,223.59z"/>
	<path d="M374.94,212.93v2.78h2.52v1.34h-2.52v5.22c0,1.2,0.34,1.88,1.32,1.88c0.46,0,0.8-0.06,1.02-0.12l0.08,1.32
		c-0.34,0.14-0.88,0.24-1.56,0.24c-0.82,0-1.48-0.26-1.9-0.74c-0.5-0.52-0.68-1.38-0.68-2.52v-5.28h-1.5v-1.34h1.5v-2.32
		L374.94,212.93z"/>
	<path d="M306.15,235.51c-1.46,1.96-2.52,4.56-2.52,8.18c0,3.56,1.1,6.12,2.52,8.12h-1.38c-1.26-1.66-2.62-4.22-2.62-8.12
		c0.02-3.94,1.36-6.5,2.62-8.18H306.15z"/>
	<path d="M308,242.87c0-1.24-0.04-2.24-0.08-3.16h1.58l0.08,1.66h0.04c0.72-1.18,1.86-1.88,3.44-1.88c2.34,0,4.1,1.98,4.1,4.92
		c0,3.48-2.12,5.2-4.4,5.2c-1.28,0-2.4-0.56-2.98-1.52h-0.04v5.26H308V242.87z M309.75,245.45c0,0.26,0.04,0.5,0.08,0.72
		c0.32,1.22,1.38,2.06,2.64,2.06c1.86,0,2.94-1.52,2.94-3.74c0-1.94-1.02-3.6-2.88-3.6c-1.2,0-2.32,0.86-2.66,2.18
		c-0.06,0.22-0.12,0.48-0.12,0.72V245.45z"/>
	<path d="M319.38,242.73c0-1.14-0.02-2.12-0.08-3.02h1.54l0.06,1.9h0.08c0.44-1.3,1.5-2.12,2.68-2.12c0.2,0,0.34,0.02,0.5,0.06v1.66
		c-0.18-0.04-0.36-0.06-0.6-0.06c-1.24,0-2.12,0.94-2.36,2.26c-0.04,0.24-0.08,0.52-0.08,0.82v5.16h-1.74V242.73z"/>
	<path d="M334.49,244.47c0,3.58-2.48,5.14-4.82,5.14c-2.62,0-4.64-1.92-4.64-4.98c0-3.24,2.12-5.14,4.8-5.14
		C332.61,239.49,334.49,241.51,334.49,244.47z M326.8,244.57c0,2.12,1.22,3.72,2.94,3.72c1.68,0,2.94-1.58,2.94-3.76
		c0-1.64-0.82-3.72-2.9-3.72C327.71,240.81,326.8,242.73,326.8,244.57z"/>
	<path d="M336.71,242.87c0-1.24-0.04-2.24-0.08-3.16h1.58l0.08,1.66h0.04c0.72-1.18,1.86-1.88,3.44-1.88c2.34,0,4.1,1.98,4.1,4.92
		c0,3.48-2.12,5.2-4.4,5.2c-1.28,0-2.4-0.56-2.98-1.52h-0.04v5.26h-1.74V242.87z M338.45,245.45c0,0.26,0.04,0.5,0.08,0.72
		c0.32,1.22,1.38,2.06,2.64,2.06c1.86,0,2.94-1.52,2.94-3.74c0-1.94-1.02-3.6-2.88-3.6c-1.2,0-2.32,0.86-2.66,2.18
		c-0.06,0.22-0.12,0.48-0.12,0.72V245.45z"/>
	<path d="M347.84,247.59c0.52,0.34,1.44,0.7,2.32,0.7c1.28,0,1.88-0.64,1.88-1.44c0-0.84-0.5-1.3-1.8-1.78
		c-1.74-0.62-2.56-1.58-2.56-2.74c0-1.56,1.26-2.84,3.34-2.84c0.98,0,1.84,0.28,2.38,0.6l-0.44,1.28c-0.38-0.24-1.08-0.56-1.98-0.56
		c-1.04,0-1.62,0.6-1.62,1.32c0,0.8,0.58,1.16,1.84,1.64c1.68,0.64,2.54,1.48,2.54,2.92c0,1.7-1.32,2.9-3.62,2.9
		c-1.06,0-2.04-0.26-2.72-0.66L347.84,247.59z"/>
	<path d="M354.94,251.81c1.42-1.98,2.52-4.58,2.52-8.18c0-3.58-1.08-6.14-2.52-8.12h1.36c1.28,1.64,2.62,4.2,2.62,8.14
		c0,3.92-1.34,6.46-2.62,8.16H354.94z"/>
</g>
<g>
	<path d="M490.92,224.95c-0.64,0.32-1.92,0.64-3.56,0.64c-3.8,0-6.66-2.4-6.66-6.82c0-4.22,2.86-7.08,7.04-7.08
		c1.68,0,2.74,0.36,3.2,0.6l-0.42,1.42c-0.66-0.32-1.6-0.56-2.72-0.56c-3.16,0-5.26,2.02-5.26,5.56c0,3.3,1.9,5.42,5.18,5.42
		c1.06,0,2.14-0.22,2.84-0.56L490.92,224.95z"/>
	<path d="M492.98,218.73c0-1.14-0.02-2.12-0.08-3.02h1.54l0.06,1.9h0.08c0.44-1.3,1.5-2.12,2.68-2.12c0.2,0,0.34,0.02,0.5,0.06v1.66
		c-0.18-0.04-0.36-0.06-0.6-0.06c-1.24,0-2.12,0.94-2.36,2.26c-0.04,0.24-0.08,0.52-0.08,0.82v5.16h-1.74V218.73z"/>
	<path d="M500.3,220.87c0.04,2.38,1.56,3.36,3.32,3.36c1.26,0,2.02-0.22,2.68-0.5l0.3,1.26c-0.62,0.28-1.68,0.6-3.22,0.6
		c-2.98,0-4.76-1.96-4.76-4.88c0-2.92,1.72-5.22,4.54-5.22c3.16,0,4,2.78,4,4.56c0,0.36-0.04,0.64-0.06,0.82H500.3z M505.46,219.61
		c0.02-1.12-0.46-2.86-2.44-2.86c-1.78,0-2.56,1.64-2.7,2.86H505.46z"/>
	<path d="M514.7,225.39l-0.14-1.22h-0.06c-0.54,0.76-1.58,1.44-2.96,1.44c-1.96,0-2.96-1.38-2.96-2.78c0-2.34,2.08-3.62,5.82-3.6
		v-0.2c0-0.8-0.22-2.24-2.2-2.24c-0.9,0-1.84,0.28-2.52,0.72l-0.4-1.16c0.8-0.52,1.96-0.86,3.18-0.86c2.96,0,3.68,2.02,3.68,3.96
		v3.62c0,0.84,0.04,1.66,0.16,2.32H514.7z M514.44,220.45c-1.92-0.04-4.1,0.3-4.1,2.18c0,1.14,0.76,1.68,1.66,1.68
		c1.26,0,2.06-0.8,2.34-1.62c0.06-0.18,0.1-0.38,0.1-0.56V220.45z"/>
	<path d="M521.02,212.93v2.78h2.52v1.34h-2.52v5.22c0,1.2,0.34,1.88,1.32,1.88c0.46,0,0.8-0.06,1.02-0.12l0.08,1.32
		c-0.34,0.14-0.88,0.24-1.56,0.24c-0.82,0-1.48-0.26-1.9-0.74c-0.5-0.52-0.68-1.38-0.68-2.52v-5.28h-1.5v-1.34h1.5v-2.32
		L521.02,212.93z"/>
	<path d="M526.38,220.87c0.04,2.38,1.56,3.36,3.32,3.36c1.26,0,2.02-0.22,2.68-0.5l0.3,1.26c-0.62,0.28-1.68,0.6-3.22,0.6
		c-2.98,0-4.76-1.96-4.76-4.88c0-2.92,1.72-5.22,4.54-5.22c3.16,0,4,2.78,4,4.56c0,0.36-0.04,0.64-0.06,0.82H526.38z M531.54,219.61
		c0.02-1.12-0.46-2.86-2.44-2.86c-1.78,0-2.56,1.64-2.7,2.86H531.54z"/>
	<path d="M482.57,235.51c-1.46,1.96-2.52,4.56-2.52,8.18c0,3.56,1.1,6.12,2.52,8.12h-1.38c-1.26-1.66-2.62-4.22-2.62-8.12
		c0.02-3.94,1.36-6.5,2.62-8.18H482.57z"/>
	<path d="M484.43,242.87c0-1.24-0.04-2.24-0.08-3.16h1.58l0.08,1.66h0.04c0.72-1.18,1.86-1.88,3.44-1.88c2.34,0,4.1,1.98,4.1,4.92
		c0,3.48-2.12,5.2-4.4,5.2c-1.28,0-2.4-0.56-2.98-1.52h-0.04v5.26h-1.74V242.87z M486.17,245.45c0,0.26,0.04,0.5,0.08,0.72
		c0.32,1.22,1.38,2.06,2.64,2.06c1.86,0,2.94-1.52,2.94-3.74c0-1.94-1.02-3.6-2.88-3.6c-1.2,0-2.32,0.86-2.66,2.18
		c-0.06,0.22-0.12,0.48-0.12,0.72V245.45z"/>
	<path d="M495.81,242.73c0-1.14-0.02-2.12-0.08-3.02h1.54l0.06,1.9h0.08c0.44-1.3,1.5-2.12,2.68-2.12c0.2,0,0.34,0.02,0.5,0.06v1.66
		c-0.18-0.04-0.36-0.06-0.6-0.06c-1.24,0-2.12,0.94-2.36,2.26c-0.04,0.24-0.08,0.52-0.08,0.82v5.16h-1.74V242.73z"/>
	<path d="M510.91,244.47c0,3.58-2.48,5.14-4.82,5.14c-2.62,0-4.64-1.92-4.64-4.98c0-3.24,2.12-5.14,4.8-5.14
		C509.03,239.49,510.91,241.51,510.91,244.47z M503.23,244.57c0,2.12,1.22,3.72,2.94,3.72c1.68,0,2.94-1.58,2.94-3.76
		c0-1.64-0.82-3.72-2.9-3.72C504.13,240.81,503.23,242.73,503.23,244.57z"/>
	<path d="M513.13,242.87c0-1.24-0.04-2.24-0.08-3.16h1.58l0.08,1.66h0.04c0.72-1.18,1.86-1.88,3.44-1.88c2.34,0,4.1,1.98,4.1,4.92
		c0,3.48-2.12,5.2-4.4,5.2c-1.28,0-2.4-0.56-2.98-1.52h-0.04v5.26h-1.74V242.87z M514.87,245.45c0,0.26,0.04,0.5,0.08,0.72
		c0.32,1.22,1.38,2.06,2.64,2.06c1.86,0,2.94-1.52,2.94-3.74c0-1.94-1.02-3.6-2.88-3.6c-1.2,0-2.32,0.86-2.66,2.18
		c-0.06,0.22-0.12,0.48-0.12,0.72V245.45z"/>
	<path d="M524.27,247.59c0.52,0.34,1.44,0.7,2.32,0.7c1.28,0,1.88-0.64,1.88-1.44c0-0.84-0.5-1.3-1.8-1.78
		c-1.74-0.62-2.56-1.58-2.56-2.74c0-1.56,1.26-2.84,3.34-2.84c0.98,0,1.84,0.28,2.38,0.6l-0.44,1.28c-0.38-0.24-1.08-0.56-1.98-0.56
		c-1.04,0-1.62,0.6-1.62,1.32c0,0.8,0.58,1.16,1.84,1.64c1.68,0.64,2.54,1.48,2.54,2.92c0,1.7-1.32,2.9-3.62,2.9
		c-1.06,0-2.04-0.26-2.72-0.66L524.27,247.59z"/>
	<path d="M531.37,251.81c1.42-1.98,2.52-4.58,2.52-8.18c0-3.58-1.08-6.14-2.52-8.12h1.36c1.28,1.64,2.62,4.2,2.62,8.14
		c0,3.92-1.34,6.46-2.62,8.16H531.37z"/>
</g>
<g>
	<path d="M673.3,219.07h-5.24v4.86h5.84v1.46h-7.58v-13.48h7.28v1.46h-5.54v4.26h5.24V219.07z"/>
	<path d="M684.38,211.19v11.7c0,0.86,0.02,1.84,0.08,2.5h-1.58l-0.08-1.68h-0.04c-0.54,1.08-1.72,1.9-3.3,1.9
		c-2.34,0-4.14-1.98-4.14-4.92c-0.02-3.22,1.98-5.2,4.34-5.2c1.48,0,2.48,0.7,2.92,1.48h0.04v-5.78H684.38z M682.62,219.65
		c0-0.22-0.02-0.52-0.08-0.74c-0.26-1.12-1.22-2.04-2.54-2.04c-1.82,0-2.9,1.6-2.9,3.74c0,1.96,0.96,3.58,2.86,3.58
		c1.18,0,2.26-0.78,2.58-2.1c0.06-0.24,0.08-0.48,0.08-0.76V219.65z"/>
	<path d="M689.26,212.99c0.02,0.6-0.42,1.08-1.12,1.08c-0.62,0-1.06-0.48-1.06-1.08c0-0.62,0.46-1.1,1.1-1.1
		C688.84,211.89,689.26,212.37,689.26,212.99z M687.3,225.39v-9.68h1.76v9.68H687.3z"/>
	<path d="M694.1,212.93v2.78h2.52v1.34h-2.52v5.22c0,1.2,0.34,1.88,1.32,1.88c0.46,0,0.8-0.06,1.02-0.12l0.08,1.32
		c-0.34,0.14-0.88,0.24-1.56,0.24c-0.82,0-1.48-0.26-1.9-0.74c-0.5-0.52-0.68-1.38-0.68-2.52v-5.28h-1.5v-1.34h1.5v-2.32
		L694.1,212.93z"/>
	<path d="M656.57,235.51c-1.46,1.96-2.52,4.56-2.52,8.18c0,3.56,1.1,6.12,2.52,8.12h-1.38c-1.26-1.66-2.62-4.22-2.62-8.12
		c0.02-3.94,1.36-6.5,2.62-8.18H656.57z"/>
	<path d="M658.43,242.87c0-1.24-0.04-2.24-0.08-3.16h1.58l0.08,1.66h0.04c0.72-1.18,1.86-1.88,3.44-1.88c2.34,0,4.1,1.98,4.1,4.92
		c0,3.48-2.12,5.2-4.4,5.2c-1.28,0-2.4-0.56-2.98-1.52h-0.04v5.26h-1.74V242.87z M660.17,245.45c0,0.26,0.04,0.5,0.08,0.72
		c0.32,1.22,1.38,2.06,2.64,2.06c1.86,0,2.94-1.52,2.94-3.74c0-1.94-1.02-3.6-2.88-3.6c-1.2,0-2.32,0.86-2.66,2.18
		c-0.06,0.22-0.12,0.48-0.12,0.72V245.45z"/>
	<path d="M669.81,242.73c0-1.14-0.02-2.12-0.08-3.02h1.54l0.06,1.9h0.08c0.44-1.3,1.5-2.12,2.68-2.12c0.2,0,0.34,0.02,0.5,0.06v1.66
		c-0.18-0.04-0.36-0.06-0.6-0.06c-1.24,0-2.12,0.94-2.36,2.26c-0.04,0.24-0.08,0.52-0.08,0.82v5.16h-1.74V242.73z"/>
	<path d="M684.91,244.47c0,3.58-2.48,5.14-4.82,5.14c-2.62,0-4.64-1.92-4.64-4.98c0-3.24,2.12-5.14,4.8-5.14
		C683.03,239.49,684.91,241.51,684.91,244.47z M677.23,244.57c0,2.12,1.22,3.72,2.94,3.72c1.68,0,2.94-1.58,2.94-3.76
		c0-1.64-0.82-3.72-2.9-3.72C678.13,240.81,677.23,242.73,677.23,244.57z"/>
	<path d="M687.13,242.87c0-1.24-0.04-2.24-0.08-3.16h1.58l0.08,1.66h0.04c0.72-1.18,1.86-1.88,3.44-1.88c2.34,0,4.1,1.98,4.1,4.92
		c0,3.48-2.12,5.2-4.4,5.2c-1.28,0-2.4-0.56-2.98-1.52h-0.04v5.26h-1.74V242.87z M688.87,245.45c0,0.26,0.04,0.5,0.08,0.72
		c0.32,1.22,1.38,2.06,2.64,2.06c1.86,0,2.94-1.52,2.94-3.74c0-1.94-1.02-3.6-2.88-3.6c-1.2,0-2.32,0.86-2.66,2.18
		c-0.06,0.22-0.12,0.48-0.12,0.72V245.45z"/>
	<path d="M698.27,247.59c0.52,0.34,1.44,0.7,2.32,0.7c1.28,0,1.88-0.64,1.88-1.44c0-0.84-0.5-1.3-1.8-1.78
		c-1.74-0.62-2.56-1.58-2.56-2.74c0-1.56,1.26-2.84,3.34-2.84c0.98,0,1.84,0.28,2.38,0.6l-0.44,1.28c-0.38-0.24-1.08-0.56-1.98-0.56
		c-1.04,0-1.62,0.6-1.62,1.32c0,0.8,0.58,1.16,1.84,1.64c1.68,0.64,2.54,1.48,2.54,2.92c0,1.7-1.32,2.9-3.62,2.9
		c-1.06,0-2.04-0.26-2.72-0.66L698.27,247.59z"/>
	<path d="M705.37,251.81c1.42-1.98,2.52-4.58,2.52-8.18c0-3.58-1.08-6.14-2.52-8.12h1.36c1.28,1.64,2.62,4.2,2.62,8.14
		c0,3.92-1.34,6.46-2.62,8.16H705.37z"/>
</g>
<g>
	<path d="M298.96,327.09c0.88-0.18,2.14-0.28,3.34-0.28c1.86,0,3.06,0.34,3.9,1.1c0.68,0.6,1.06,1.52,1.06,2.56
		c0,1.78-1.12,2.96-2.54,3.44v0.06c1.04,0.36,1.66,1.32,1.98,2.72c0.44,1.88,0.76,3.18,1.04,3.7h-1.8c-0.22-0.38-0.52-1.54-0.9-3.22
		c-0.4-1.86-1.12-2.56-2.7-2.62h-1.64v5.84h-1.74V327.09z M300.7,333.23h1.78c1.86,0,3.04-1.02,3.04-2.56c0-1.74-1.26-2.5-3.1-2.52
		c-0.84,0-1.44,0.08-1.72,0.16V333.23z"/>
	<path d="M310.71,335.87c0.04,2.38,1.56,3.36,3.32,3.36c1.26,0,2.02-0.22,2.68-0.5l0.3,1.26c-0.62,0.28-1.68,0.6-3.22,0.6
		c-2.98,0-4.76-1.96-4.76-4.88c0-2.92,1.72-5.22,4.54-5.22c3.16,0,4,2.78,4,4.56c0,0.36-0.04,0.64-0.06,0.82H310.71z M315.88,334.61
		c0.02-1.12-0.46-2.86-2.44-2.86c-1.78,0-2.56,1.64-2.7,2.86H315.88z"/>
	<path d="M326.66,340.03c-0.46,0.24-1.48,0.56-2.78,0.56c-2.92,0-4.82-1.98-4.82-4.94c0-2.98,2.04-5.14,5.2-5.14
		c1.04,0,1.96,0.26,2.44,0.5l-0.4,1.36c-0.42-0.24-1.08-0.46-2.04-0.46c-2.22,0-3.42,1.64-3.42,3.66c0,2.24,1.44,3.62,3.36,3.62
		c1,0,1.66-0.26,2.16-0.48L326.66,340.03z"/>
	<path d="M337.36,335.47c0,3.58-2.48,5.14-4.82,5.14c-2.62,0-4.64-1.92-4.64-4.98c0-3.24,2.12-5.14,4.8-5.14
		C335.48,330.49,337.36,332.51,337.36,335.47z M329.67,335.57c0,2.12,1.22,3.72,2.94,3.72c1.68,0,2.94-1.58,2.94-3.76
		c0-1.64-0.82-3.72-2.9-3.72C330.58,331.81,329.67,333.73,329.67,335.57z"/>
	<path d="M339.58,333.73c0-1.14-0.02-2.12-0.08-3.02h1.54l0.06,1.9h0.08c0.44-1.3,1.5-2.12,2.68-2.12c0.2,0,0.34,0.02,0.5,0.06v1.66
		c-0.18-0.04-0.36-0.06-0.6-0.06c-1.24,0-2.12,0.94-2.36,2.26c-0.04,0.24-0.08,0.52-0.08,0.82v5.16h-1.74V333.73z"/>
	<path d="M354.28,326.19v11.7c0,0.86,0.02,1.84,0.08,2.5h-1.58l-0.08-1.68h-0.04c-0.54,1.08-1.72,1.9-3.3,1.9
		c-2.34,0-4.14-1.98-4.14-4.92c-0.02-3.22,1.98-5.2,4.34-5.2c1.48,0,2.48,0.7,2.92,1.48h0.04v-5.78H354.28z M352.52,334.65
		c0-0.22-0.02-0.52-0.08-0.74c-0.26-1.12-1.22-2.04-2.54-2.04c-1.82,0-2.9,1.6-2.9,3.74c0,1.96,0.96,3.58,2.86,3.58
		c1.18,0,2.26-0.78,2.58-2.1c0.06-0.24,0.08-0.48,0.08-0.76V334.65z"/>
	<path d="M356.95,338.59c0.52,0.34,1.44,0.7,2.32,0.7c1.28,0,1.88-0.64,1.88-1.44c0-0.84-0.5-1.3-1.8-1.78
		c-1.74-0.62-2.56-1.58-2.56-2.74c0-1.56,1.26-2.84,3.34-2.84c0.98,0,1.84,0.28,2.38,0.6l-0.44,1.28c-0.38-0.24-1.08-0.56-1.98-0.56
		c-1.04,0-1.62,0.6-1.62,1.32c0,0.8,0.58,1.16,1.84,1.64c1.68,0.64,2.54,1.48,2.54,2.92c0,1.7-1.32,2.9-3.62,2.9
		c-1.06,0-2.04-0.26-2.72-0.66L356.95,338.59z"/>
	<path d="M306.15,350.51c-1.46,1.96-2.52,4.56-2.52,8.18c0,3.56,1.1,6.12,2.52,8.12h-1.38c-1.26-1.66-2.62-4.22-2.62-8.12
		c0.02-3.94,1.36-6.5,2.62-8.18H306.15z"/>
	<path d="M308,357.87c0-1.24-0.04-2.24-0.08-3.16h1.58l0.08,1.66h0.04c0.72-1.18,1.86-1.88,3.44-1.88c2.34,0,4.1,1.98,4.1,4.92
		c0,3.48-2.12,5.2-4.4,5.2c-1.28,0-2.4-0.56-2.98-1.52h-0.04v5.26H308V357.87z M309.75,360.45c0,0.26,0.04,0.5,0.08,0.72
		c0.32,1.22,1.38,2.06,2.64,2.06c1.86,0,2.94-1.52,2.94-3.74c0-1.94-1.02-3.6-2.88-3.6c-1.2,0-2.32,0.86-2.66,2.18
		c-0.06,0.22-0.12,0.48-0.12,0.72V360.45z"/>
	<path d="M319.38,357.73c0-1.14-0.02-2.12-0.08-3.02h1.54l0.06,1.9h0.08c0.44-1.3,1.5-2.12,2.68-2.12c0.2,0,0.34,0.02,0.5,0.06v1.66
		c-0.18-0.04-0.36-0.06-0.6-0.06c-1.24,0-2.12,0.94-2.36,2.26c-0.04,0.24-0.08,0.52-0.08,0.82v5.16h-1.74V357.73z"/>
	<path d="M334.49,359.47c0,3.58-2.48,5.14-4.82,5.14c-2.62,0-4.64-1.92-4.64-4.98c0-3.24,2.12-5.14,4.8-5.14
		C332.61,354.49,334.49,356.51,334.49,359.47z M326.8,359.57c0,2.12,1.22,3.72,2.94,3.72c1.68,0,2.94-1.58,2.94-3.76
		c0-1.64-0.82-3.72-2.9-3.72C327.71,355.81,326.8,357.73,326.8,359.57z"/>
	<path d="M336.71,357.87c0-1.24-0.04-2.24-0.08-3.16h1.58l0.08,1.66h0.04c0.72-1.18,1.86-1.88,3.44-1.88c2.34,0,4.1,1.98,4.1,4.92
		c0,3.48-2.12,5.2-4.4,5.2c-1.28,0-2.4-0.56-2.98-1.52h-0.04v5.26h-1.74V357.87z M338.45,360.45c0,0.26,0.04,0.5,0.08,0.72
		c0.32,1.22,1.38,2.06,2.64,2.06c1.86,0,2.94-1.52,2.94-3.74c0-1.94-1.02-3.6-2.88-3.6c-1.2,0-2.32,0.86-2.66,2.18
		c-0.06,0.22-0.12,0.48-0.12,0.72V360.45z"/>
	<path d="M347.84,362.59c0.52,0.34,1.44,0.7,2.32,0.7c1.28,0,1.88-0.64,1.88-1.44c0-0.84-0.5-1.3-1.8-1.78
		c-1.74-0.62-2.56-1.58-2.56-2.74c0-1.56,1.26-2.84,3.34-2.84c0.98,0,1.84,0.28,2.38,0.6l-0.44,1.28c-0.38-0.24-1.08-0.56-1.98-0.56
		c-1.04,0-1.62,0.6-1.62,1.32c0,0.8,0.58,1.16,1.84,1.64c1.68,0.64,2.54,1.48,2.54,2.92c0,1.7-1.32,2.9-3.62,2.9
		c-1.06,0-2.04-0.26-2.72-0.66L347.84,362.59z"/>
	<path d="M354.94,366.81c1.42-1.98,2.52-4.58,2.52-8.18c0-3.58-1.08-6.14-2.52-8.12h1.36c1.28,1.64,2.62,4.2,2.62,8.14
		c0,3.92-1.34,6.46-2.62,8.16H354.94z"/>
</g>
<g>
	<path d="M106.85,233.39v-13.48h1.9l4.32,6.82c1,1.58,1.78,3,2.42,4.38l0.04-0.02c-0.16-1.8-0.2-3.44-0.2-5.54v-5.64h1.64v13.48
		h-1.76l-4.28-6.84c-0.94-1.5-1.84-3.04-2.52-4.5l-0.06,0.02c0.1,1.7,0.14,3.32,0.14,5.56v5.76H106.85z"/>
	<path d="M125.31,233.39l-0.14-1.22h-0.06c-0.54,0.76-1.58,1.44-2.96,1.44c-1.96,0-2.96-1.38-2.96-2.78c0-2.34,2.08-3.62,5.82-3.6
		v-0.2c0-0.8-0.22-2.24-2.2-2.24c-0.9,0-1.84,0.28-2.52,0.72l-0.4-1.16c0.8-0.52,1.96-0.86,3.18-0.86c2.96,0,3.68,2.02,3.68,3.96
		v3.62c0,0.84,0.04,1.66,0.16,2.32H125.31z M125.05,228.45c-1.92-0.04-4.1,0.3-4.1,2.18c0,1.14,0.76,1.68,1.66,1.68
		c1.26,0,2.06-0.8,2.34-1.62c0.06-0.18,0.1-0.38,0.1-0.56V228.45z"/>
	<path d="M130.11,223.71l1.9,5.44c0.32,0.88,0.58,1.68,0.78,2.48h0.06c0.22-0.8,0.5-1.6,0.82-2.48l1.88-5.44h1.84l-3.8,9.68h-1.68
		l-3.68-9.68H130.11z"/>
	<path d="M139.11,220.09c0.76-0.16,1.96-0.28,3.18-0.28c1.74,0,2.86,0.3,3.7,0.98c0.7,0.52,1.12,1.32,1.12,2.38
		c0,1.3-0.86,2.44-2.28,2.96v0.04c1.28,0.32,2.78,1.38,2.78,3.38c0,1.16-0.46,2.04-1.14,2.7c-0.94,0.86-2.46,1.26-4.66,1.26
		c-1.2,0-2.12-0.08-2.7-0.16V220.09z M140.85,225.61h1.58c1.84,0,2.92-0.96,2.92-2.26c0-1.58-1.2-2.2-2.96-2.2
		c-0.8,0-1.26,0.06-1.54,0.12V225.61z M140.85,232.07c0.34,0.06,0.84,0.08,1.46,0.08c1.8,0,3.46-0.66,3.46-2.62
		c0-1.84-1.58-2.6-3.48-2.6h-1.44V232.07z"/>
	<path d="M155.25,233.39l-0.14-1.22h-0.06c-0.54,0.76-1.58,1.44-2.96,1.44c-1.96,0-2.96-1.38-2.96-2.78c0-2.34,2.08-3.62,5.82-3.6
		v-0.2c0-0.8-0.22-2.24-2.2-2.24c-0.9,0-1.84,0.28-2.52,0.72l-0.4-1.16c0.8-0.52,1.96-0.86,3.18-0.86c2.96,0,3.68,2.02,3.68,3.96
		v3.62c0,0.84,0.04,1.66,0.16,2.32H155.25z M154.99,228.45c-1.92-0.04-4.1,0.3-4.1,2.18c0,1.14,0.76,1.68,1.66,1.68
		c1.26,0,2.06-0.8,2.34-1.62c0.06-0.18,0.1-0.38,0.1-0.56V228.45z"/>
	<path d="M159.53,226.73c0-1.14-0.02-2.12-0.08-3.02h1.54l0.06,1.9h0.08c0.44-1.3,1.5-2.12,2.68-2.12c0.2,0,0.34,0.02,0.5,0.06v1.66
		c-0.18-0.04-0.36-0.06-0.6-0.06c-1.24,0-2.12,0.94-2.36,2.26c-0.04,0.24-0.08,0.52-0.08,0.82v5.16h-1.74V226.73z"/>
</g>
<g>
	<path d="M50.03,349.27c0.78,0.48,1.92,0.88,3.12,0.88c1.78,0,2.82-0.94,2.82-2.3c0-1.26-0.72-1.98-2.54-2.68
		c-2.2-0.78-3.56-1.92-3.56-3.82c0-2.1,1.74-3.66,4.36-3.66c1.38,0,2.38,0.32,2.98,0.66l-0.48,1.42c-0.44-0.24-1.34-0.64-2.56-0.64
		c-1.84,0-2.54,1.1-2.54,2.02c0,1.26,0.82,1.88,2.68,2.6c2.28,0.88,3.44,1.98,3.44,3.96c0,2.08-1.54,3.88-4.72,3.88
		c-1.3,0-2.72-0.38-3.44-0.86L50.03,349.27z"/>
	<path d="M61.17,346.87c0.04,2.38,1.56,3.36,3.32,3.36c1.26,0,2.02-0.22,2.68-0.5l0.3,1.26c-0.62,0.28-1.68,0.6-3.22,0.6
		c-2.98,0-4.76-1.96-4.76-4.88c0-2.92,1.72-5.22,4.54-5.22c3.16,0,4,2.78,4,4.56c0,0.36-0.04,0.64-0.06,0.82H61.17z M66.33,345.61
		c0.02-1.12-0.46-2.86-2.44-2.86c-1.78,0-2.56,1.64-2.7,2.86H66.33z"/>
	<path d="M75.57,351.39l-0.14-1.22h-0.06c-0.54,0.76-1.58,1.44-2.96,1.44c-1.96,0-2.96-1.38-2.96-2.78c0-2.34,2.08-3.62,5.82-3.6
		v-0.2c0-0.8-0.22-2.24-2.2-2.24c-0.9,0-1.84,0.28-2.52,0.72l-0.4-1.16c0.8-0.52,1.96-0.86,3.18-0.86c2.96,0,3.68,2.02,3.68,3.96
		v3.62c0,0.84,0.04,1.66,0.16,2.32H75.57z M75.31,346.45c-1.92-0.04-4.1,0.3-4.1,2.18c0,1.14,0.76,1.68,1.66,1.68
		c1.26,0,2.06-0.8,2.34-1.62c0.06-0.18,0.1-0.38,0.1-0.56V346.45z"/>
	<path d="M79.85,344.73c0-1.14-0.02-2.12-0.08-3.02h1.54l0.06,1.9h0.08c0.44-1.3,1.5-2.12,2.68-2.12c0.2,0,0.34,0.02,0.5,0.06v1.66
		c-0.18-0.04-0.36-0.06-0.6-0.06c-1.24,0-2.12,0.94-2.36,2.26c-0.04,0.24-0.08,0.52-0.08,0.82v5.16h-1.74V344.73z"/>
	<path d="M93.09,351.03c-0.46,0.24-1.48,0.56-2.78,0.56c-2.92,0-4.82-1.98-4.82-4.94c0-2.98,2.04-5.14,5.2-5.14
		c1.04,0,1.96,0.26,2.44,0.5l-0.4,1.36c-0.42-0.24-1.08-0.46-2.04-0.46c-2.22,0-3.42,1.64-3.42,3.66c0,2.24,1.44,3.62,3.36,3.62
		c1,0,1.66-0.26,2.16-0.48L93.09,351.03z"/>
	<path d="M95.15,337.19h1.76v6.04h0.04c0.28-0.5,0.72-0.94,1.26-1.24c0.52-0.3,1.14-0.5,1.8-0.5c1.3,0,3.38,0.8,3.38,4.14v5.76
		h-1.76v-5.56c0-1.56-0.58-2.88-2.24-2.88c-1.14,0-2.04,0.8-2.36,1.76c-0.1,0.24-0.12,0.5-0.12,0.84v5.84h-1.76V337.19z"/>
</g>
<g>
	<path d="M165.69,349.27c0.78,0.48,1.92,0.88,3.12,0.88c1.78,0,2.82-0.94,2.82-2.3c0-1.26-0.72-1.98-2.54-2.68
		c-2.2-0.78-3.56-1.92-3.56-3.82c0-2.1,1.74-3.66,4.36-3.66c1.38,0,2.38,0.32,2.98,0.66l-0.48,1.42c-0.44-0.24-1.34-0.64-2.56-0.64
		c-1.84,0-2.54,1.1-2.54,2.02c0,1.26,0.82,1.88,2.68,2.6c2.28,0.88,3.44,1.98,3.44,3.96c0,2.08-1.54,3.88-4.72,3.88
		c-1.3,0-2.72-0.38-3.44-0.86L165.69,349.27z"/>
	<path d="M177.69,338.99c0.02,0.6-0.42,1.08-1.12,1.08c-0.62,0-1.06-0.48-1.06-1.08c0-0.62,0.46-1.1,1.1-1.1
		C177.27,337.89,177.69,338.37,177.69,338.99z M175.73,351.39v-9.68h1.76v9.68H175.73z"/>
	<path d="M188.75,341.71c-0.04,0.7-0.08,1.48-0.08,2.66v5.62c0,2.22-0.44,3.58-1.38,4.42c-0.94,0.88-2.3,1.16-3.52,1.16
		c-1.16,0-2.44-0.28-3.22-0.8l0.44-1.34c0.64,0.4,1.64,0.76,2.84,0.76c1.8,0,3.12-0.94,3.12-3.38v-1.08h-0.04
		c-0.54,0.9-1.58,1.62-3.08,1.62c-2.4,0-4.12-2.04-4.12-4.72c0-3.28,2.14-5.14,4.36-5.14c1.68,0,2.6,0.88,3.02,1.68h0.04l0.08-1.46
		H188.75z M186.93,345.53c0-0.3-0.02-0.56-0.1-0.8c-0.32-1.02-1.18-1.86-2.46-1.86c-1.68,0-2.88,1.42-2.88,3.66
		c0,1.9,0.96,3.48,2.86,3.48c1.08,0,2.06-0.68,2.44-1.8c0.1-0.3,0.14-0.64,0.14-0.94V345.53z"/>
	<path d="M191.47,344.33c0-1-0.02-1.82-0.08-2.62h1.56l0.1,1.6h0.04c0.48-0.92,1.6-1.82,3.2-1.82c1.34,0,3.42,0.8,3.42,4.12v5.78
		h-1.76v-5.58c0-1.56-0.58-2.86-2.24-2.86c-1.16,0-2.06,0.82-2.36,1.8c-0.08,0.22-0.12,0.52-0.12,0.82v5.82h-1.76V344.33z"/>
	<path d="M208.77,338.99c0.02,0.6-0.42,1.08-1.12,1.08c-0.62,0-1.06-0.48-1.06-1.08c0-0.62,0.46-1.1,1.1-1.1
		C208.35,337.89,208.77,338.37,208.77,338.99z M206.81,351.39v-9.68h1.76v9.68H206.81z"/>
	<path d="M211.49,344.33c0-1-0.02-1.82-0.08-2.62h1.56l0.1,1.6h0.04c0.48-0.92,1.6-1.82,3.2-1.82c1.34,0,3.42,0.8,3.42,4.12v5.78
		h-1.76v-5.58c0-1.56-0.58-2.86-2.24-2.86c-1.16,0-2.06,0.82-2.36,1.8c-0.08,0.22-0.12,0.52-0.12,0.82v5.82h-1.76V344.33z"/>
</g>
</svg>
