<?xml version="1.0" encoding="utf-8"?>
<!-- Generator: Adobe Illustrator 24.3.0, SVG Export Plug-In . SVG Version: 6.00 Build 0)  -->
<svg version="1.1" id="Layer_1" xmlns="http://www.w3.org/2000/svg" xmlns:xlink="http://www.w3.org/1999/xlink" x="0px" y="0px"
	 viewBox="0 0 621 657" style="enable-background:new 0 0 621 657;" xml:space="preserve">
<style type="text/css">
	.st0{fill:#FFFFFF;}
	.st1{fill:#666666;}
	.st2{fill:none;}
	.st3{font-family:'Mono45Headline-Regular';}
	.st4{font-size:26px;}
	.st5{font-family:'MrEavesModOT-Book';}
	.st6{font-size:20px;}
	.st7{fill:#4C4C4C;}
	.st8{font-size:22.0259px;}
	.st9{fill:none;stroke:#4C4C4C;stroke-miterlimit:10;}
	.st10{font-size:14.3647px;}
	.st11{font-size:17px;}
	.st12{fill:none;stroke:#666666;stroke-miterlimit:10;}
</style>
<g id="Layer_1_1_">
	<g>
		<rect x="3.5" y="4.5" class="st0" width="617" height="652"/>
		<g>
			<path class="st1" d="M620,5v651H4V5H620 M621,4H3v653h618V4L621,4z"/>
		</g>
	</g>
	<g>
		<rect x="3" y="4" class="st1" width="618" height="65"/>
	</g>
	<g>
		<rect x="494.5" y="29" class="st0" width="18" height="18"/>
		<path class="st1" d="M512,29.5v17h-17v-17H512 M513,28.5h-19v19h19V28.5L513,28.5z"/>
	</g>
	<rect x="31.2" y="29.16" class="st2" width="210.8" height="32.68"/>
	<text transform="matrix(1 0 0 1 31.1968 47.0491)" class="st0 st3 st4">Record collection</text>
	<text transform="matrix(1 0 0 1 534.5415 42.3687)" class="st0 st5 st6">Sign In</text>
	<text transform="matrix(1 0 0 1 47.4106 246.2485)" class="st7 st5 st8">Record 1</text>
	<g>
		<rect x="33.4" y="110.98" class="st9" width="91.87" height="91.87"/>
		<line class="st9" x1="33.88" y1="110.5" x2="124.86" y2="202.43"/>
		<line class="st9" x1="33.88" y1="202.43" x2="124.86" y2="110.5"/>
	</g>
	<g>
		<rect x="146.83" y="110.97" class="st9" width="91.87" height="91.87"/>
		<line class="st9" x1="147.31" y1="110.49" x2="238.29" y2="202.43"/>
		<line class="st9" x1="147.31" y1="202.43" x2="238.29" y2="110.49"/>
	</g>
	<g>
		<rect x="260.26" y="110.97" class="st9" width="91.87" height="91.87"/>
		<line class="st9" x1="260.74" y1="110.49" x2="351.72" y2="202.42"/>
		<line class="st9" x1="260.74" y1="202.42" x2="351.72" y2="110.49"/>
	</g>
	<g>
		<rect x="373.7" y="110.96" class="st9" width="91.87" height="91.87"/>
		<line class="st9" x1="374.18" y1="110.48" x2="465.15" y2="202.42"/>
		<line class="st9" x1="374.18" y1="202.42" x2="465.15" y2="110.48"/>
	</g>
	<g>
		<rect x="487.13" y="110.96" class="st9" width="91.87" height="91.87"/>
		<line class="st9" x1="487.61" y1="110.48" x2="578.58" y2="202.41"/>
		<line class="st9" x1="487.61" y1="202.41" x2="578.58" y2="110.48"/>
	</g>
	<rect x="31.71" y="270.35" class="st2" width="95.25" height="50.65"/>
	<text transform="matrix(1 0 0 1 65.8419 278.9668)" class="st1 st5 st10">Artist</text>
	<text transform="matrix(1 0 0 1 68.3519 296.2068)" class="st1 st5 st10">Title</text>
	<text transform="matrix(1 0 0 1 67.3519 313.4468)" class="st1 st5 st10">Year</text>
	<rect x="145.14" y="270.35" class="st2" width="95.25" height="50.65"/>
	<text transform="matrix(1 0 0 1 179.2738 278.9668)" class="st1 st5 st10">Artist</text>
	<text transform="matrix(1 0 0 1 181.7838 296.2068)" class="st1 st5 st10">Title</text>
	<text transform="matrix(1 0 0 1 180.7838 313.4468)" class="st1 st5 st10">Year</text>
	<rect x="258.58" y="270.35" class="st2" width="95.25" height="50.65"/>
	<text transform="matrix(1 0 0 1 292.7057 278.9668)" class="st1 st5 st10">Artist</text>
	<text transform="matrix(1 0 0 1 295.2157 296.2068)" class="st1 st5 st10">Title</text>
	<text transform="matrix(1 0 0 1 294.2157 313.4468)" class="st1 st5 st10">Year</text>
	<rect x="372.01" y="270.35" class="st2" width="95.25" height="50.65"/>
	<text transform="matrix(1 0 0 1 406.1376 278.9668)" class="st1 st5 st10">Artist</text>
	<text transform="matrix(1 0 0 1 408.6476 296.2068)" class="st1 st5 st10">Title</text>
	<text transform="matrix(1 0 0 1 407.6476 313.4468)" class="st1 st5 st10">Year</text>
	<rect x="485.44" y="270.35" class="st2" width="95.25" height="50.65"/>
	<text transform="matrix(1 0 0 1 519.5695 278.9668)" class="st1 st5 st10">Artist</text>
	<text transform="matrix(1 0 0 1 522.0795 296.2068)" class="st1 st5 st10">Title</text>
	<text transform="matrix(1 0 0 1 521.0795 313.4468)" class="st1 st5 st10">Year</text>
	<text transform="matrix(1 0 0 1 158.3398 246.2485)" class="st7 st5 st8">Record 2</text>
	<text transform="matrix(1 0 0 1 271.0757 246.2485)" class="st7 st5 st8">Record 3</text>
	<text transform="matrix(1 0 0 1 383.5581 246.2485)" class="st7 st5 st8">Record 4</text>
	<text transform="matrix(1 0 0 1 497.1641 246.2485)" class="st7 st5 st8">Record 5</text>
	<text transform="matrix(1 0 0 1 44.6792 500.2485)" class="st7 st5 st8">Record 6</text>
	<g>
		<rect x="33.4" y="364.98" class="st9" width="91.87" height="91.87"/>
		<line class="st9" x1="33.88" y1="364.5" x2="124.86" y2="456.43"/>
		<line class="st9" x1="33.88" y1="456.43" x2="124.86" y2="364.5"/>
	</g>
	<g>
		<rect x="146.83" y="364.97" class="st9" width="91.87" height="91.87"/>
		<line class="st9" x1="147.31" y1="364.49" x2="238.29" y2="456.43"/>
		<line class="st9" x1="147.31" y1="456.43" x2="238.29" y2="364.49"/>
	</g>
	<g>
		<rect x="260.26" y="364.97" class="st9" width="91.87" height="91.87"/>
		<line class="st9" x1="260.74" y1="364.49" x2="351.72" y2="456.42"/>
		<line class="st9" x1="260.74" y1="456.42" x2="351.72" y2="364.49"/>
	</g>
	<g>
		<rect x="373.7" y="364.96" class="st9" width="91.87" height="91.87"/>
		<line class="st9" x1="374.18" y1="364.48" x2="465.15" y2="456.42"/>
		<line class="st9" x1="374.18" y1="456.42" x2="465.15" y2="364.48"/>
	</g>
	<g>
		<rect x="487.13" y="364.96" class="st9" width="91.87" height="91.87"/>
		<line class="st9" x1="487.61" y1="364.48" x2="578.58" y2="456.41"/>
		<line class="st9" x1="487.61" y1="456.41" x2="578.58" y2="364.48"/>
	</g>
	<rect x="31.71" y="524.35" class="st2" width="95.25" height="50.65"/>
	<text transform="matrix(1 0 0 1 65.8419 532.9668)" class="st1 st5 st10">Artist</text>
	<text transform="matrix(1 0 0 1 68.3519 550.2068)" class="st1 st5 st10">Title</text>
	<text transform="matrix(1 0 0 1 67.3519 567.4468)" class="st1 st5 st10">Year</text>
	<rect x="145.14" y="524.35" class="st2" width="95.25" height="50.65"/>
	<text transform="matrix(1 0 0 1 179.2738 532.9668)" class="st1 st5 st10">Artist</text>
	<text transform="matrix(1 0 0 1 181.7838 550.2068)" class="st1 st5 st10">Title</text>
	<text transform="matrix(1 0 0 1 180.7838 567.4468)" class="st1 st5 st10">Year</text>
	<rect x="258.58" y="524.35" class="st2" width="95.25" height="50.65"/>
	<text transform="matrix(1 0 0 1 292.7057 532.9668)" class="st1 st5 st10">Artist</text>
	<text transform="matrix(1 0 0 1 295.2157 550.2068)" class="st1 st5 st10">Title</text>
	<text transform="matrix(1 0 0 1 294.2157 567.4468)" class="st1 st5 st10">Year</text>
	<rect x="372.01" y="524.35" class="st2" width="95.25" height="50.65"/>
	<text transform="matrix(1 0 0 1 406.1376 532.9668)" class="st1 st5 st10">Artist</text>
	<text transform="matrix(1 0 0 1 408.6476 550.2068)" class="st1 st5 st10">Title</text>
	<text transform="matrix(1 0 0 1 407.6476 567.4468)" class="st1 st5 st10">Year</text>
	<rect x="485.44" y="524.35" class="st2" width="95.25" height="50.65"/>
	<text transform="matrix(1 0 0 1 519.5695 532.9668)" class="st1 st5 st10">Artist</text>
	<text transform="matrix(1 0 0 1 522.0795 550.2068)" class="st1 st5 st10">Title</text>
	<text transform="matrix(1 0 0 1 521.0795 567.4468)" class="st1 st5 st10">Year</text>
	<text transform="matrix(1 0 0 1 158.439 500.2485)" class="st7 st5 st8">Record 7</text>
	<text transform="matrix(1 0 0 1 270.4697 500.2485)" class="st7 st5 st8">Record 8</text>
	<text transform="matrix(1 0 0 1 383.6792 500.2485)" class="st7 st5 st8">Record 9</text>
	<text transform="matrix(1 0 0 1 493.4634 500.2485)" class="st7 st5 st8">Record 10</text>
	<g>
		<rect x="246" y="29" class="st0" width="235" height="18"/>
	</g>
	<text transform="matrix(1 0 0 1 299.2585 42.3687)" class="st1 st5 st11">Search your collection</text>
	<g>
		<g>
			<line class="st12" x1="503.5" y1="32.5" x2="503.5" y2="43.5"/>
		</g>
		<g>
			<line class="st12" x1="509" y1="38" x2="498" y2="38"/>
		</g>
	</g>
</g>
<g id="Layer_2_1_">
</g>
</svg>
